<!-- Generator: Adobe Illustrator 18.0.0, SVG Export Plug-In  -->
<svg version="1.1"
	 xmlns="http://www.w3.org/2000/svg" xmlns:xlink="http://www.w3.org/1999/xlink" xmlns:a="http://ns.adobe.com/AdobeSVGViewerExtensions/3.0/"
	 x="0px" y="0px" width="64px" height="64px" viewBox="0 0 64 64" enable-background="new 0 0 64 64" xml:space="preserve">
<defs>
</defs>
<g>
	<circle fill="#77B3D4" cx="32" cy="32" r="32"/>
</g>
<g opacity="0.2">
	<path fill="#231F20" d="M52,44c0,2.2-1.8,4-4,4H16c-2.2,0-4-1.8-4-4V26c0-2.2,1.8-4,4-4h32c2.2,0,4,1.8,4,4V44z"/>
</g>
<g>
	<path fill="#4F5D73" d="M38,17v20H26V17H38 M38,13H26c-2.2,0-4,1.8-4,4v20c0,2.2,1.8,4,4,4h12c2.2,0,4-1.8,4-4V17
		C42,14.8,40.2,13,38,13L38,13z"/>
</g>
<g>
	<g>
		<path fill="#C75C5C" d="M12,29v13c0,2.2,1.8,4,4,4h32c2.2,0,4-1.8,4-4V29H12z"/>
	</g>
</g>
<g>
	<path fill="#F5CF87" d="M36,28v3h-8v-3H36 M36,24h-8c-2.2,0-4,1.8-4,4v3c0,2.2,1.8,4,4,4h8c2.2,0,4-1.8,4-4v-3
		C40,25.8,38.2,24,36,24L36,24z"/>
</g>
<g opacity="0.2">
	<path fill="#231F20" d="M52,26c0-2.2-1.8-4-4-4H16c-2.2,0-4,1.8-4,4v5h40V26z"/>
</g>
<g>
	<path fill="#C75C5C" d="M52,24c0-2.2-1.8-4-4-4H16c-2.2,0-4,1.8-4,4v5h40V24z"/>
</g>
</svg>